<?xml version="1.0" encoding="UTF-8" standalone="no"?>
<!DOCTYPE svg PUBLIC "-//W3C//DTD SVG 1.1//EN" "http://www.w3.org/Graphics/SVG/1.1/DTD/svg11.dtd">
<svg width="100%" height="100%" viewBox="0 0 198 198" version="1.1" xmlns="http://www.w3.org/2000/svg" xmlns:xlink="http://www.w3.org/1999/xlink" xml:space="preserve" xmlns:serif="http://www.serif.com/" style="fill-rule:evenodd;clip-rule:evenodd;stroke-linejoin:round;stroke-miterlimit:2;">
    <g transform="matrix(0.499855,0,0,0.5,-199.942087,-200)">
        <path d="M794.226,493.534C794.168,492.186 794.05,490.868 793.933,489.52C793.904,489.198 793.904,488.847 793.845,488.524C793.757,487.704 793.64,486.913 793.523,486.093C793.406,485.243 793.318,484.423 793.201,483.603C793.113,483.017 792.995,482.431 792.878,481.875C792.702,480.85 792.526,479.795 792.321,478.77C792.145,477.949 791.94,477.159 791.764,476.338C791.589,475.547 791.413,474.786 791.237,473.995C791.032,473.175 790.768,472.384 790.534,471.564C790.328,470.802 790.123,470.07 789.889,469.308C789.625,468.488 789.332,467.668 789.039,466.847C788.805,466.144 788.57,465.441 788.336,464.738C787.955,463.713 787.544,462.717 787.163,461.721C786.958,461.223 786.782,460.754 786.577,460.256C786.108,459.172 785.64,458.118 785.141,457.063C784.965,456.683 784.79,456.272 784.614,455.892C784.145,454.896 783.617,453.929 783.119,452.962C782.885,452.523 782.68,452.083 782.445,451.644C781.859,450.56 781.214,449.476 780.599,448.422C780.423,448.129 780.276,447.836 780.101,447.543C779.427,446.43 778.723,445.346 777.991,444.262C777.844,444.028 777.698,443.793 777.551,443.559C776.672,442.27 775.763,440.981 774.826,439.722C773.946,438.55 773.038,437.378 772.1,436.236C772.041,436.148 771.983,436.06 771.895,435.972C753.784,414.031 726.441,400.088 695.816,400.059L695.816,400L695.728,400.059L695.758,400.059C687.259,400.059 678.994,401.142 671.111,403.164C666.393,404.365 661.792,405.947 657.367,407.792C655.901,408.407 654.436,409.081 653,409.755C623.899,423.757 602.799,451.644 598.139,484.804L598.08,484.804C596.029,499.011 591.662,512.457 585.449,524.819L585.654,524.819C564.026,567.704 519.598,597.144 468.254,597.144C445.337,597.144 423.826,591.285 405.07,581.003C402.872,579.802 400.205,581.384 400.205,583.874L400.205,597.144L400,597.144L400,794.2L597.172,794.2L597.172,695.657L597.377,695.657L597.377,646.386C597.377,619.172 619.444,597.115 646.67,597.115L695.963,597.115C704.403,597.115 712.579,596.031 720.404,594.01C725.122,592.779 729.723,591.227 734.149,589.381C735.614,588.766 737.079,588.092 738.515,587.419C768.671,572.889 790.299,543.449 793.845,508.678C794.168,505.368 794.343,501.999 794.343,498.601C794.343,496.902 794.314,495.203 794.226,493.534Z" style="fill-rule:nonzero;"/>
    </g>
</svg>
